inDegrees=yes
name=ik_S50_A01_T03
DataType=double
version=3
OpenSimVersion=4.3-2021-08-27-4bc7ad9
endheader
time	pelvis_tilt	pelvis_list	pelvis_rotation	pelvis_tx	pelvis_ty	pelvis_tz	hip_flexion_r	hip_adduction_r	hip_rotation_r	knee_angle_r	knee_angle_r_beta	ankle_angle_r	subtalar_angle_r	mtp_angle_r	hip_flexion_l	hip_adduction_l	hip_rotation_l	knee_angle_l	knee_angle_l_beta	ankle_angle_l	subtalar_angle_l	mtp_angle_l	lumbar_extension	lumbar_bending	lumbar_rotation	arm_flex_r	arm_add_r	arm_rot_r	elbow_flex_r	pro_sup_r	wrist_flex_r	wrist_dev_r	arm_flex_l	arm_add_l	arm_rot_l	elbow_flex_l	pro_sup_l	wrist_flex_l	wrist_dev_l
0	0	0	0	0	0.9399999999999999	0	0	0	0	0	0	0	0	0	0	0	0	0	0	0	0	0	0	0	0	0	0	0	0	89.99999999963507	0	0	0	0	0	0	89.99999999869995	0	0
0.04	1.203017262029128	-4.566447913960174	-88.50702284371118	0	0.9399999999999999	0	-3.132620417381342	-3.336054198135594	-4.355631133992049	1.733048567413562	0.03024740359833757	0	0	0	-3.916847665896589	-2.485132298294009	-2.357674624309689	-0.5302721506937417	-0.009254994961237325	0	0	0	0	0	0	2.084356784072009	-2.084356784072008	0.3735589739412715	10.09269877160149	89.62644104766139	0	0	2.084356784072009	-2.084356784072008	0.3735589739412715	10.09269877160149	89.62644104679626	0	0
0.06	1.157722104883097	-4.622406640772287	-88.50502088414677	0	0.9399999999999999	0	-3.472200266806825	-3.261083384586281	-4.101107062190668	1.420933630876602	0.02479997031111447	0	0	0	-4.016554549142216	-2.516440102571158	-2.320130443428674	-0.4532790798242858	-0.007911212373343987	0	0	0	0	0	0	2.090897413707189	-2.090897413707189	0.3748386288265717	10.1467331383912	89.6251613928526	0	0	2.090897413707189	-2.090897413707189	0.3748386288265717	10.1467331383912	89.62516139198775	0	0
0.08	1.153945739995524	-4.58772375046876	-88.46429019758656	0	0.9399999999999999	0	-3.640502813132021	-3.176278839582569	-4.285924919926448	1.268910558970056	0.02214666716734914	0	0	0	-4.057883751834241	-2.521069830565572	-2.274407513835641	-0.4476777329033025	-0.007813450427026383	0	0	0	0	0	0	2.095511848614495	-2.095511848614494	0.3757411472326176	10.18472474128258	89.62425887450054	0	0	2.095511848614495	-2.095511848614494	0.3757411472326176	10.18472474128258	89.62425887363582	0	0
0.1	1.147837375082994	-4.527529215141334	-88.49821387054998	0	0.9399999999999999	0	-3.638790492996213	-3.169112943287045	-4.37787362612239	1.252925422134078	0.02186767389817949	0	0	0	-4.143799709312811	-2.525980934324264	-2.322838809183333	-0.4670073037351707	-0.008150815081039941	0	0	0	0	0	0	2.097075508395621	-2.097075508395621	0.3760449813051543	10.19719672716509	89.62395504044613	0	0	2.097075508395621	-2.097075508395621	0.3760449813051543	10.19719672716509	89.62395503958147	0	0
0.12	1.130427281689566	-4.499767572044423	-88.520454121236	0	0.9399999999999999	0	-3.668344369756344	-3.174739724874124	-4.475926860967189	1.255972737275964	0.02192085958075129	0	0	0	-4.165761447485283	-2.529515291525223	-2.339501352748212	-0.4821214442088972	-0.008414606595915404	0	0	0	0	0	0	2.098341071086659	-2.098341071086659	0.3762909645325923	10.20728938190151	89.62370905723341	0	0	2.098341071086659	-2.098341071086659	0.3762909645325923	10.20728938190151	89.62370905636878	0	0
0.14	1.124795774238872	-4.476128167526804	-88.51543739190261	0	0.9399999999999999	0	-3.68062045773072	-3.175756305279843	-4.569161303433688	1.268042627492863	0.02213151890539042	0	0	0	-4.18586104381236	-2.523184045964982	-2.25023132842046	-0.4833675549731979	-0.008436355331596994	0	0	0	0	0	0	2.101594671679908	-2.101594671679908	0.3769279273581197	10.23410433205537	89.623072094446	0	0	2.101594671679908	-2.101594671679908	0.3769279273581197	10.23410433205537	89.62307209358143	0	0
0.16	1.134159310663493	-4.435154731765532	-88.53175390706232	0	0.9399999999999999	0	-3.658206565115734	-3.185166804082634	-4.601830563958268	1.346524033326319	0.02350127783877812	0	0	0	-4.166335634339266	-2.505884087326315	-2.20576050107161	-0.4834069248135031	-0.008437042464936305	0	0	0	0	0	0	2.279572380275132	-2.279572380275131	0.4097228286991408	10.69100258599146	89.59027719503291	0	0	2.279572380275132	-2.279572380275131	0.4097228286991408	10.69100258599146	89.59027719417446	0	0
